<?xml version="1.0" encoding="iso-8859-1"?>
<!-- Generator: Adobe Illustrator 18.0.0, SVG Export Plug-In . SVG Version: 6.00 Build 0)  -->
<!DOCTYPE svg PUBLIC "-//W3C//DTD SVG 1.1//EN" "http://www.w3.org/Graphics/SVG/1.1/DTD/svg11.dtd">
<svg version="1.1" id="Capa_1" xmlns="http://www.w3.org/2000/svg" xmlns:xlink="http://www.w3.org/1999/xlink" x="0px" y="0px"
	 viewBox="0 0 57 57" style="enable-background:new 0 0 57 57;" xml:space="preserve">
<g>
	<path d="M41,31c-7.168,0-13,5.832-13,13s5.832,13,13,13s13-5.832,13-13S48.168,31,41,31z M41,55c-6.065,0-11-4.935-11-11
		s4.935-11,11-11s11,4.935,11,11S47.065,55,41,55z"/>
	<path d="M45.95,39.051c-0.391-0.391-1.023-0.391-1.414,0L41,42.586l-3.536-3.535c-0.391-0.391-1.023-0.391-1.414,0
		s-0.391,1.023,0,1.414L39.586,44l-3.536,3.535c-0.391,0.391-0.391,1.023,0,1.414c0.195,0.195,0.451,0.293,0.707,0.293
		s0.512-0.098,0.707-0.293L41,45.414l3.536,3.535c0.195,0.195,0.451,0.293,0.707,0.293s0.512-0.098,0.707-0.293
		c0.391-0.391,0.391-1.023,0-1.414L42.414,44l3.536-3.535C46.34,40.074,46.34,39.441,45.95,39.051z"/>
	<rect x="3" width="34" height="11"/>
	<path d="M37,27.495V13H3v41.443C3,55.302,3.699,56,4.559,56c0.412,0,0.801-0.162,1.091-0.452L20,41l4.056,4.112
		C24.032,44.743,24,44.375,24,44C24,36.006,29.553,29.301,37,27.495z"/>
</g>
<g>
</g>
<g>
</g>
<g>
</g>
<g>
</g>
<g>
</g>
<g>
</g>
<g>
</g>
<g>
</g>
<g>
</g>
<g>
</g>
<g>
</g>
<g>
</g>
<g>
</g>
<g>
</g>
<g>
</g>
</svg>
